<?xml version="1.0" encoding="iso-8859-1"?>
<!-- Generator: Adobe Illustrator 19.0.0, SVG Export Plug-In . SVG Version: 6.00 Build 0)  -->
<svg version="1.1" id="Capa_1" xmlns="http://www.w3.org/2000/svg" xmlns:xlink="http://www.w3.org/1999/xlink" x="0px" y="0px"
	 viewBox="0 0 60 60" style="enable-background:new 0 0 60 60;" xml:space="preserve">
<g>
	<path d="M56.281,2H3.719C1.668,2,0,3.668,0,5.719v48.563C0,56.332,1.668,58,3.719,58h52.563C58.332,58,60,56.332,60,54.281V5.719
		C60,3.668,58.332,2,56.281,2z M10,52c-2.206,0-4-1.794-4-4s1.794-4,4-4s4,1.794,4,4S12.206,52,10,52z M10,42c-2.206,0-4-1.794-4-4
		s1.794-4,4-4s4,1.794,4,4S12.206,42,10,42z M10,32c-2.206,0-4-1.794-4-4s1.794-4,4-4s4,1.794,4,4S12.206,32,10,32z M20,52
		c-2.206,0-4-1.794-4-4s1.794-4,4-4s4,1.794,4,4S22.206,52,20,52z M20,42c-2.206,0-4-1.794-4-4s1.794-4,4-4s4,1.794,4,4
		S22.206,42,20,42z M20,32c-2.206,0-4-1.794-4-4s1.794-4,4-4s4,1.794,4,4S22.206,32,20,32z M30,52c-2.206,0-4-1.794-4-4s1.794-4,4-4
		s4,1.794,4,4S32.206,52,30,52z M30,42c-2.206,0-4-1.794-4-4s1.794-4,4-4s4,1.794,4,4S32.206,42,30,42z M30,32c-2.206,0-4-1.794-4-4
		s1.794-4,4-4s4,1.794,4,4S32.206,32,30,32z M53,50c0,0.553-0.447,1-1,1H38c-0.553,0-1-0.447-1-1V36c0-0.553,0.447-1,1-1h14
		c0.553,0,1,0.447,1,1V50z M53,31c0,0.553-0.447,1-1,1H38c-0.553,0-1-0.447-1-1v-6c0-0.553,0.447-1,1-1h14c0.553,0,1,0.447,1,1V31z
		 M54,19c0,0.553-0.447,1-1,1H7c-0.553,0-1-0.447-1-1V9c0-0.553,0.447-1,1-1h46c0.553,0,1,0.447,1,1V19z"/>
	<path d="M49.707,11.293c-0.391-0.391-1.023-0.391-1.414,0L47,12.586l-1.293-1.293c-0.391-0.391-1.023-0.391-1.414,0
		s-0.391,1.023,0,1.414L45.586,14l-1.293,1.293c-0.391,0.391-0.391,1.023,0,1.414C44.488,16.902,44.744,17,45,17
		s0.512-0.098,0.707-0.293L47,15.414l1.293,1.293C48.488,16.902,48.744,17,49,17s0.512-0.098,0.707-0.293
		c0.391-0.391,0.391-1.023,0-1.414L48.414,14l1.293-1.293C50.098,12.316,50.098,11.684,49.707,11.293z"/>
	<path d="M41.707,11.293c-0.391-0.391-1.023-0.391-1.414,0L39,12.586l-1.293-1.293c-0.391-0.391-1.023-0.391-1.414,0
		s-0.391,1.023,0,1.414L37.586,14l-1.293,1.293c-0.391,0.391-0.391,1.023,0,1.414C36.488,16.902,36.744,17,37,17
		s0.512-0.098,0.707-0.293L39,15.414l1.293,1.293C40.488,16.902,40.744,17,41,17s0.512-0.098,0.707-0.293
		c0.391-0.391,0.391-1.023,0-1.414L40.414,14l1.293-1.293C42.098,12.316,42.098,11.684,41.707,11.293z"/>
	<path d="M33.707,11.293c-0.391-0.391-1.023-0.391-1.414,0L31,12.586l-1.293-1.293c-0.391-0.391-1.023-0.391-1.414,0
		s-0.391,1.023,0,1.414L29.586,14l-1.293,1.293c-0.391,0.391-0.391,1.023,0,1.414C28.488,16.902,28.744,17,29,17
		s0.512-0.098,0.707-0.293L31,15.414l1.293,1.293C32.488,16.902,32.744,17,33,17s0.512-0.098,0.707-0.293
		c0.391-0.391,0.391-1.023,0-1.414L32.414,14l1.293-1.293C34.098,12.316,34.098,11.684,33.707,11.293z"/>
	<path d="M25.707,11.293c-0.391-0.391-1.023-0.391-1.414,0L23,12.586l-1.293-1.293c-0.391-0.391-1.023-0.391-1.414,0
		s-0.391,1.023,0,1.414L21.586,14l-1.293,1.293c-0.391,0.391-0.391,1.023,0,1.414C20.488,16.902,20.744,17,21,17
		s0.512-0.098,0.707-0.293L23,15.414l1.293,1.293C24.488,16.902,24.744,17,25,17s0.512-0.098,0.707-0.293
		c0.391-0.391,0.391-1.023,0-1.414L24.414,14l1.293-1.293C26.098,12.316,26.098,11.684,25.707,11.293z"/>
</g>
<g>
</g>
<g>
</g>
<g>
</g>
<g>
</g>
<g>
</g>
<g>
</g>
<g>
</g>
<g>
</g>
<g>
</g>
<g>
</g>
<g>
</g>
<g>
</g>
<g>
</g>
<g>
</g>
<g>
</g>
</svg>
